<?xml version="1.0" encoding="iso-8859-1"?>
<!-- Generator: Adobe Illustrator 19.0.0, SVG Export Plug-In . SVG Version: 6.00 Build 0)  -->
<svg version="1.1" id="Capa_1" xmlns="http://www.w3.org/2000/svg" xmlns:xlink="http://www.w3.org/1999/xlink" x="0px" y="0px"
	 viewBox="0 0 512 512" style="enable-background:new 0 0 512 512;" xml:space="preserve">
<circle style="fill:#0ED5CD;" cx="256" cy="256" r="256"/>
<path style="fill:#04A7A7;" d="M78.504,327L263.39,511.887c121.233-3.438,221.352-91.159,243.858-206.639L301,99L78.504,327z"/>
<rect x="78.5" y="99" style="fill:#FFDE1F;" width="222.5" height="228"/>
<rect x="188.33" y="99" style="fill:#F9C41E;" width="112.67" height="228"/>
<rect x="166.36" y="99" style="fill:#D74315;" width="46.791" height="88.72"/>
<rect x="188.33" y="99" style="fill:#BE360C;" width="24.814" height="88.72"/>
<rect x="265.117" y="317.251" transform="matrix(-0.7071 -0.7071 0.7071 -0.7071 339.0088 838.9225)" style="fill:#0619BD;" width="156.269" height="63.999"/>
<rect x="315.403" y="281.152" transform="matrix(-0.7071 0.7071 -0.7071 -0.7071 822.8692 377.7296)" style="fill:#001593;" width="35.603" height="156.268"/>
<circle style="fill:#FFFFFF;" cx="266" cy="269" r="86"/>
<path style="fill:#E0E0E0;" d="M206.261,207.166C190.079,222.804,180,244.719,180,269c0,47.497,38.503,86,86,86
	c24.281,0,46.196-10.079,61.834-26.261L206.261,207.166z"/>
<path style="fill:#1B56DB;" d="M266,371c-56.243,0-102-45.757-102-102s45.757-102,102-102s102,45.757,102,102S322.243,371,266,371z
	 M266,199c-38.598,0-70,31.402-70,70s31.402,70,70,70s70-31.402,70-70S304.598,199,266,199z"/>
<path style="fill:#1148A8;" d="M316.497,317.402C303.748,330.697,285.831,339,266,339c-38.598,0-70-31.402-70-70
	c0-19.831,8.303-37.748,21.598-50.497l-22.629-22.629C175.881,214.42,164,240.347,164,269c0,56.243,45.757,102,102,102
	c28.653,0,54.58-11.881,73.126-30.969L316.497,317.402z"/>
<g>
</g>
<g>
</g>
<g>
</g>
<g>
</g>
<g>
</g>
<g>
</g>
<g>
</g>
<g>
</g>
<g>
</g>
<g>
</g>
<g>
</g>
<g>
</g>
<g>
</g>
<g>
</g>
<g>
</g>
</svg>
